Coordinates
version=1
nRows=11
nColumns=40
inDegrees=yes

Units are S.I. units (second, meters, Newtons, ...)
If the header above contains a line with 'inDegrees', this indicates whether rotational values are in degrees (yes) or radians (no).

endheader
time	pelvis_tilt	pelvis_list	pelvis_rotation	pelvis_tx	pelvis_ty	pelvis_tz	hip_flexion_r	hip_adduction_r	hip_rotation_r	knee_angle_r	knee_angle_r_beta	ankle_angle_r	subtalar_angle_r	mtp_angle_r	hip_flexion_l	hip_adduction_l	hip_rotation_l	knee_angle_l	knee_angle_l_beta	ankle_angle_l	subtalar_angle_l	mtp_angle_l	lumbar_extension	lumbar_bending	lumbar_rotation	arm_flex_r	arm_add_r	arm_rot_r	elbow_flex_r	pro_sup_r	wrist_flex_r	wrist_dev_r	arm_flex_l	arm_add_l	arm_rot_l	elbow_flex_l	pro_sup_l	wrist_flex_l	wrist_dev_l
      0.99000000	      2.04778449	      3.89641708	     -1.46914306	      0.64439546	      0.94186527	      0.20691189	     19.39438737	    -15.01591237	    -13.68469213	     65.38990022	      1.14126906	     -6.70639983	    -17.83261996	      0.00000000	      0.49840687	      4.02902791	    -19.56855263	      9.96682243	      0.17395387	      3.82952669	      7.11578901	      0.00000000	     -2.13640310	     -4.63223991	     -1.68357287	     44.00164154	    -15.78256643	     44.00164154	     75.25413280	     45.00543024	      0.00000000	      0.00000000	     44.00164154	    -15.78256643	     44.00164154	     75.25413280	     45.00543024	      0.00000000	      0.00000000
      0.99500000	      2.17963034	      3.43934762	     -1.24000356	      0.65060641	      0.94259690	      0.20629443	     19.64142446	    -14.27701723	    -13.90801737	     64.31529098	      1.12251359	     -5.74120425	    -17.13649090	      0.00000000	     -0.38101860	      3.63201163	    -19.32331813	      9.38806339	      0.16385262	      4.22075482	      8.03595516	      0.00000000	     -2.32427288	     -4.06393197	     -2.04636527	     44.00369292	    -15.77990974	     44.00369292	     75.25244551	     45.00533054	      0.00000000	      0.00000000	     44.00369292	    -15.77990974	     44.00369292	     75.25244551	     45.00533054	      0.00000000	      0.00000000
      1.00000000	      2.24091802	      3.16262640	     -0.95443244	      0.65671669	      0.94303824	      0.20549921	     20.02576004	    -13.81282850	    -14.17682499	     63.27060888	      1.10428044	     -5.25801408	    -16.73161911	      0.00000000	     -1.00486892	      3.39321086	    -19.23471872	      9.13666203	      0.15946484	      4.44110500	      8.47534952	      0.00000000	     -2.51479783	     -3.66085006	     -2.31456248	     44.00596939	    -15.77696616	     44.00596939	     75.25058310	     45.00522200	      0.00000000	      0.00000000	     44.00596939	    -15.77696616	     44.00596939	     75.25058310	     45.00522200	      0.00000000	      0.00000000
      1.00500000	      2.10796260	      3.22002975	     -0.73527760	      0.66281875	      0.94274560	      0.20496677	     20.80508575	    -13.75790715	    -14.32336793	     62.45615394	      1.09006552	     -5.06412378	    -16.66763883	      0.00000000	     -1.32598351	      3.48878226	    -19.29935635	      9.05625175	      0.15806141	      4.57629962	      8.55498209	      0.00000000	     -2.40567343	     -3.65956985	     -2.31856242	     44.00624697	    -15.77660757	     44.00624697	     75.25035670	     45.00520890	      0.00000000	      0.00000000	     44.00624697	    -15.77660757	     44.00624697	     75.25035670	     45.00520890	      0.00000000	      0.00000000
      1.01000000	      2.25647881	      2.82691779	     -0.50273798	      0.66894522	      0.94328568	      0.20441917	     20.96175537	    -13.07274267	    -14.50396976	     61.14991145	      1.06726729	     -4.26655421	    -16.00046503	      0.00000000	     -2.15523794	      3.13470756	    -19.02678620	      8.58575706	      0.14984973	      5.00473767	      9.23240966	      0.00000000	     -2.67746674	     -3.16476789	     -2.61054878	     44.00819337	    -15.77409464	     44.00819337	     75.24877266	     45.00511782	      0.00000000	      0.00000000	     44.00819337	    -15.77409464	     44.00819337	     75.24877266	     45.00511782	      0.00000000	      0.00000000
      1.01500000	      2.11609370	      2.91675237	     -0.27064729	      0.67501151	      0.94282559	      0.20389026	     21.68399083	    -13.04695191	    -14.62228511	     60.17773870	      1.05029968	     -4.10204952	    -15.90869268	      0.00000000	     -2.44416042	      3.25623207	    -19.03891647	      8.54132147	      0.14907418	      5.12075485	      9.30982976	      0.00000000	     -2.53703930	     -3.17578750	     -2.60251645	     44.00851300	    -15.77368233	     44.00851300	     75.24851327	     45.00510301	      0.00000000	      0.00000000	     44.00851300	    -15.77368233	     44.00851300	     75.24851327	     45.00510301	      0.00000000	      0.00000000
      1.02000000	      2.36350968	      2.41701204	      0.07083591	      0.68105700	      0.94357535	      0.20303752	     21.57004090	    -12.27933088	    -14.92990305	     58.56118386	      1.02208547	     -3.53968436	    -15.23279695	      0.00000000	     -3.31109603	      2.76981770	    -18.68705871	      8.17947815	      0.14275882	      5.39836219	      9.80906352	      0.00000000	     -3.01105356	     -2.49940014	     -2.98574917	     44.01150870	    -15.76982172	     44.01150870	     75.24609051	     45.00496594	      0.00000000	      0.00000000	     44.01150870	    -15.76982172	     44.01150870	     75.24609051	     45.00496594	      0.00000000	      0.00000000
      1.02500000	      2.18962191	      2.54698708	      0.28861302	      0.68709646	      0.94284998	      0.20259583	     22.32614005	    -12.31779935	    -15.03843732	     57.56918772	      1.00477187	     -3.39727747	    -15.17649023	      0.00000000	     -3.55239767	      2.92249576	    -18.69107651	      8.13652418	      0.14200914	      5.57090504	      9.85504504	      0.00000000	     -2.87035886	     -2.58220499	     -2.94065342	     44.01176987	    -15.76948557	     44.01176987	     75.24588016	     45.00495415	      0.00000000	      0.00000000	     44.01176987	    -15.76948557	     44.01176987	     75.24588016	     45.00495415	      0.00000000	      0.00000000
      1.03000000	      2.05314475	      2.69282170	      0.48060977	      0.69315436	      0.94222342	      0.20226037	     22.93405565	    -12.29700405	    -15.05375082	     56.32636266	      0.98308048	     -3.18097061	    -15.02019980	      0.00000000	     -3.86373896	      3.10347745	    -18.56304948	      8.07898567	      0.14100490	      5.85231303	      9.98380635	      0.00000000	     -2.66201733	     -2.64700451	     -2.90328568	     44.01209908	    -15.76906191	     44.01209908	     75.24561515	     45.00493933	      0.00000000	      0.00000000	     44.01209908	    -15.76906191	     44.01209908	     75.24561515	     45.00493933	      0.00000000	      0.00000000
      1.03500000	      2.41169738	      2.07518140	      0.82249161	      0.69912997	      0.94309419	      0.20150079	     22.52366125	    -11.31905258	    -15.26703346	     54.34517933	      0.94850231	     -2.67698713	    -14.28421216	      0.00000000	     -4.86144498	      2.47260727	    -18.06298401	      7.66474052	      0.13377496	      6.15884885	     10.41288494	      0.00000000	     -3.36015315	     -1.86334862	     -3.31050787	     44.01511299	    -15.76518696	     44.01511299	     75.24319724	     45.00480533	      0.00000000	      0.00000000	     44.01511299	    -15.76518696	     44.01511299	     75.24319724	     45.00480533	      0.00000000	      0.00000000
      1.04000000	      2.44504818	      1.96354950	      1.09759864	      0.70512819	      0.94286010	      0.20094698	     22.73692750	    -11.01898034	    -15.42954526	     52.77057019	      0.92102020	     -2.64128057	    -14.18637894	      0.00000000	     -5.38647825	      2.37509980	    -17.76000917	      7.50772488	      0.13103452	      6.43917642	     10.41647114	      0.00000000	     -3.49416594	     -1.62592318	     -3.48684567	     44.01852917	    -15.76080415	     44.01852917	     75.24047653	     45.00465736	      0.00000000	      0.00000000	     44.01852917	    -15.76080415	     44.01852917	     75.24047653	     45.00465736	      0.00000000	      0.00000000
